<svg xmlns="http://www.w3.org/2000/svg" width="314.98" height="314.98" viewBox="0 0 314.98 314.98">
  <defs>
    <style>
      .cls-1 {
        fill: #ffdecc;
      }

      .cls-1, .cls-13, .cls-2, .cls-3, .cls-5, .cls-6, .cls-7, .cls-8, .cls-9 {
        fill-rule: evenodd;
      }

      .cls-2 {
        fill: #333;
      }

      .cls-3, .cls-4 {
        fill: #f6c5a0;
      }

      .cls-5 {
        fill: #9fbac4;
      }

      .cls-6 {
        fill: #1a1a1a;
      }

      .cls-7 {
        fill: #1b1b1b;
      }

      .cls-8 {
        fill: #28a8e3;
      }

      .cls-9 {
        fill: #fff;
      }

      .cls-10 {
        opacity: 0.2;
      }

      .cls-11 {
        fill: #605343;
      }

      .cls-12 {
        opacity: 0.05;
      }

      .cls-13 {
        opacity: 0.1;
      }
    </style>
  </defs>
  <title>04</title>
  <g id="objects">
    <g>
      <path class="cls-1" d="M144.81,177.51c-42.93,18.82-55.81,28.85-60.9,33.36-7.84,6.94-12.18,32.82-16.81,54.78H261.35c-4.63-22-9-47.84-16.81-54.78-5.09-4.51-17.49-14.28-60.42-33.1Z"/>
      <path class="cls-2" d="M144.81,177.51c-42.93,18.82-55.8,28.85-60.89,33.36-7.84,6.94-12.18,32.82-16.81,54.78H261.35c-4.63-22-9-47.84-16.81-54.78-5.09-4.51-17.49-14.28-60.42-33.1Z"/>
      <path class="cls-3" d="M143.39,140v47.58c11.46,13.55,30.22,14,41.69,0V140C185.07,114.3,143.39,114.3,143.39,140Z"/>
      <ellipse class="cls-4" cx="124.55" cy="121.58" rx="7" ry="12.1" transform="translate(-31.77 45.04) rotate(-18.22)"/>
      <ellipse class="cls-4" cx="203.72" cy="121.58" rx="12.1" ry="7" transform="translate(24.51 277.03) rotate(-71.77)"/>
      <path class="cls-5" d="M164.34,197.93s-29.09,6.94-29.09,8.7,11.07,59,11.07,59h39.49l4.53-58.77Z"/>
      <polygon class="cls-6" points="143.38 178.14 143.38 187.58 152.44 265.65 136.87 265.65 119.74 230.88 136.09 219.98 116.11 210.64 134.49 182.13 143.38 178.14"/>
      <polygon class="cls-7" points="185.07 178.19 185.07 187.58 175.93 265.65 191.5 265.65 208.62 230.88 192.28 219.98 212.25 210.64 195.93 183.01 185.07 178.19"/>
      <path class="cls-8" d="M155.27,207.58l5,7.82h7.83l5-7.82-8.85-9.65Z"/>
      <polygon class="cls-8" points="160.31 215.4 153.13 265.65 175.33 265.65 168.14 215.4 160.31 215.4"/>
      <path class="cls-9" d="M143.39,171.85l-1.82,7.09,5.1,36.91,17.67-17.92Z"/>
      <path class="cls-10" d="M143.39,163v1.5s10.65,12.64,20.8,13.09,20.88-12.24,20.88-12.24v-2.31"/>
      <g>
        <path class="cls-3" d="M164.26,54.57c-64.12,0-39.55,87.84-35.36,94.57,4.62,7.42,25,23.78,35.36,23.78s30.74-16.36,35.36-23.78C203.81,142.4,228.39,54.57,164.26,54.57Z"/>
        <path class="cls-11" d="M193,56.62c-21.66-17-55.1-6.88-65.2,7.32-12.64,17.77-8.17,44.76-5.18,65,0,0,0-.06,0-.09,0,.2.08.41.13.63a6.18,6.18,0,0,0,.47.76c.11.19.89,0,1.15-.14a.31.31,0,0,0,.14-.27c.12-1.79,0-5.34,0-5.38-.24-2.79-.84-5.48-1.25-8.2,2-12.78,8-15.47,11.17-30.89.66-1,1.38-2,2.12-3a24.5,24.5,0,0,1,2.79-3.15A16.82,16.82,0,0,0,141,78.15c11.66-4.27,23.67.85,34.68,5.34,4.21,1.72,8.93,3.75,13.57,3.39a3.72,3.72,0,0,0,3.65-3.13c5.27,15.77,9.61,23.09,12.17,34.66-.35,2-.73,4-.9,6.08,0,0-.11,3.59,0,5.38a.31.31,0,0,0,.14.27c.26.13,1,.33,1.15.14a6.24,6.24,0,0,0,.47-.76,10.36,10.36,0,0,0,.28-2.2c.13-1,.31-2.09.45-3.19C210,111.61,216.1,62,193,56.62ZM160.2,73.37,159.12,73c.54.13,1.07.27,1.61.42Z"/>
      </g>
      <path class="cls-9" d="M185.07,171.85l1.44,7-4.79,37.4-17.38-18.29Z"/>
      <polyline class="cls-12" points="143.38 171.85 164.34 197.93 185.07 171.85 185.07 171.23 164.34 197.19 143.38 171.23 143.38 171.85"/>
      <polygon class="cls-13" points="160.31 215.4 168.14 215.4 168.18 215.66 160.28 215.66 160.31 215.4"/>
    </g>
  </g>
</svg>
