<svg xmlns="http://www.w3.org/2000/svg" width="320.98" height="320.98" viewBox="0 0 320.98 320.98">
  <defs>
    <style>
      .cls-1 {
        fill: #ffdecc;
      }

      .cls-1, .cls-11, .cls-13, .cls-2, .cls-3, .cls-5, .cls-6, .cls-7, .cls-8 {
        fill-rule: evenodd;
      }

      .cls-2 {
        fill: #282828;
      }

      .cls-3, .cls-4 {
        fill: #f6c8ac;
      }

      .cls-5 {
        fill: #343434;
      }

      .cls-6 {
        fill: #1a1a1a;
      }

      .cls-7 {
        fill: #1b1b1b;
      }

      .cls-8 {
        fill: #268085;
      }

      .cls-9 {
        opacity: 0.2;
      }

      .cls-10 {
        opacity: 0.05;
      }

      .cls-11 {
        opacity: 0.1;
      }

      .cls-12, .cls-13 {
        fill: #605343;
      }
    </style>
  </defs>
  <title>04</title>
  <g id="objects">
    <g>
      <path class="cls-1" d="M144.84,176.53c-42.93,18.82-55.8,28.85-60.9,33.36-7.84,6.94-12.18,32.82-16.81,54.78H261.38c-4.62-22-9-47.84-16.81-54.78-5.09-4.51-17.49-14.28-60.42-33.1Z"/>
      <path class="cls-2" d="M144.84,176.53c-42.93,18.82-55.8,28.85-60.89,33.36-7.84,6.94-12.18,32.82-16.81,54.78H261.38c-4.62-22-9-47.84-16.81-54.78-5.09-4.51-17.49-14.28-60.42-33.1Z"/>
      <path class="cls-3" d="M143.42,139V186.6c11.46,13.55,30.22,14,41.69,0V139C185.1,113.32,143.42,113.32,143.42,139Z"/>
      <ellipse class="cls-4" cx="124.58" cy="120.6" rx="7" ry="12.1" transform="matrix(0.95, -0.31, 0.31, 0.95, -31.47, 45.01)"/>
      <ellipse class="cls-4" cx="203.76" cy="120.6" rx="12.1" ry="7" transform="translate(25.46 276.38) rotate(-71.77)"/>
      <path class="cls-5" d="M164.37,196.95s-29.09,6.94-29.09,8.7,11.07,59,11.07,59h39.49l4.53-58.77Z"/>
      <polygon class="cls-6" points="143.42 177.16 143.42 186.6 152.47 264.67 136.9 264.67 119.78 229.9 136.13 219 116.14 209.66 134.52 181.15 143.42 177.16"/>
      <polygon class="cls-7" points="185.1 177.21 185.1 186.6 175.96 264.67 191.53 264.67 208.66 229.9 192.31 219 212.29 209.66 195.96 182.03 185.1 177.21"/>
      <path class="cls-8" d="M155.3,206.6l5,7.82h7.83l5.05-7.82-8.86-9.65Z"/>
      <polygon class="cls-8" points="160.35 214.42 153.16 264.67 175.36 264.67 168.18 214.42 160.35 214.42"/>
      <path class="cls-5" d="M143.42,170.87,141.6,178l5.1,36.91,17.67-17.92Z"/>
      <path class="cls-9" d="M143.42,162.06v1.5s10.65,12.64,20.8,13.09,20.88-12.24,20.88-12.24v-2.31"/>
      <path class="cls-3" d="M164.3,53.58c-64.13,0-39.55,87.84-35.36,94.57,4.62,7.42,25,23.78,35.36,23.78s30.74-16.36,35.36-23.78C203.85,141.42,228.42,53.58,164.3,53.58Z"/>
      <path class="cls-5" d="M185.1,170.87l1.44,7-4.79,37.4-17.38-18.29Z"/>
      <polyline class="cls-10" points="143.42 170.87 164.37 196.95 185.1 170.87 185.1 170.25 164.37 196.21 143.42 170.25 143.42 170.87"/>
      <polygon class="cls-11" points="160.35 214.42 168.18 214.42 168.21 214.68 160.31 214.68 160.35 214.42"/>
      <g>
        <path class="cls-12" d="M206,118.59c-.32,1.2-.66,2.26-.66,2.26s-5.75,19.57-10.67,25.64c-9.52,11.74-21.94,19-30.4,19.06s-20.57-6.56-30.19-18c-3.81-4.54-10.79-25-10.91-26.66a22.52,22.52,0,0,0-.55-3.12c-1.29,0-1.33,8.68-1.33,8.68,1.94,10.15,3.31,16.85,7.3,22.42,6.37,8.9,24.35,23,35.26,23s28.9-14.07,35.26-23c4-5.62,5.12-13.1,7.33-23.64C206.45,125.19,207,118.67,206,118.59Z"/>
        <path class="cls-13" d="M184,144.84c-1.48-3.12-13.44-7.35-15.59-8.14s-3.68,2-3.68,2-1.53-2.76-3.68-2-14.11,5-15.59,8.14-2.2,5.28-2.2,7.42V162a5.88,5.88,0,0,0,3.34-.79c1.22-.92,2.61-3.55,2.61-6.82a6.68,6.68,0,0,1,5.32-6.49c3.08-.62,10.2-1.81,10.2-3.75,0,1.93,7.61,3.28,10.2,3.75a6.62,6.62,0,0,1,5.32,6.49c0,3.27,1.39,5.89,2.61,6.82a5.88,5.88,0,0,0,3.34.79v-9.74C186.16,150.12,185.44,148,184,144.84Z"/>
      </g>
      <path class="cls-8" d="M184.66,131.85c.36,0,.73,0,1.12-.06,10.43-.87,13-5.56,14.17-11.48,1.29-6.5,1.37-8.77,3.05-9.36,1.23-.44,1.53-1.9,1.49-3.59s-.1-1.87-2.13-2.58c-1.61-.56-10.52-1.37-17.2-.95l0,1.75c5.26-.29,10.34.35,11.81,1.3,3.35,2.17,2.37,12.63-.45,17.82-2,3.6-7.14,5.43-11.81,5.51Zm-19.49-24.6c-2.3.06-11.72-2.66-18.43-3.24q-.71-.07-1.47-.11l0,1.75c5.45.25,11.09,1.48,13,4.39,3.17,4.77-2.53,16.44-7.68,19a13.5,13.5,0,0,1-5.8,1.22l0,1.65c9,0,12.35-6.49,13.47-8.66,2.1-4.08,1.66-9.71,6.83-9.72s4.48,5.51,6.32,9.59c1,2.2,3.92,9,13.28,8.69l0-1.65a13.31,13.31,0,0,1-6.11-1.19c-5-2.57-10-14.21-6.52-19,2.09-2.89,7.68-4.15,13.08-4.44l0-1.75-1.22.09C177.91,104.47,170.6,107.11,165.17,107.25Zm-19.89-3.35c-6.62-.35-15.38.48-17,1-2.08.72-2.15.9-2.29,2.6s.08,3.15,1.27,3.58c1.64.59,1.59,2.86,2.49,9.35.81,5.92,3.09,10.59,13.47,11.41.53,0,1,.06,1.55.07l0-1.65c-4.77,0-10.08-1.77-11.87-5.46-2.51-5.18-2.86-15.63.64-17.82,1.51-.95,6.51-1.6,11.68-1.36Z"/>
      <path class="cls-12" d="M134.27,50.08c22.63-19.49,67,5.4,77.3,19.6-4.17,14.28-2.14,32.48-5.21,52.75,0,0,0-.06,0-.09,0,.2-.08.41-.13.63a6.21,6.21,0,0,1-.49.76c-.11.19-.91,0-1.18-.14a.31.31,0,0,1-.14-.27c-.12-1.79,0-5.34,0-5.38.24-2.79-.16-5.62.25-8.35-2.08-12.78-.4-13.32-7.56-26.08a51.69,51.69,0,0,0-5-5.83c-11.94-4.27-16.1,2.84-27.37,7.33-4.31,1.72-10.8,1.83-15.57,1.83-7.43,0-14.62-8-14.77-9.63-8.93,13.47-9.84,23.09-12.46,34.66.36,2,.75,4,.92,6.08,0,0,.12,3.59,0,5.38a.31.31,0,0,1-.15.27c-.27.13-1.07.33-1.18.14a6.25,6.25,0,0,1-.49-.76,10.19,10.19,0,0,1-.28-2.2c-.14-1-.32-2.09-.46-3.19C116.92,105.07,110.63,55.46,134.27,50.08ZM167.9,66.83l1.11-.32c-.55.13-1.1.27-1.65.42Z"/>
    </g>
  </g>
</svg>
